{
  "accessors": [
    {
      "bufferView": 2,
      "componentType": 5126,
      "count": 471,
      "max": [
        0.67580091953277588,
        0.66553318500518799,
        7.9424080848693848
      ],
      "min": [
        -0.67579317092895508,
        -0.66552728414535522,
        -0.12046718597412109
      ],
      "type": "VEC3"
    },
    {
      "bufferView": 2,
      "byteOffset": 5652,
      "componentType": 5126,
      "count": 471,
      "max": [
        1,
        0.98480784893035889,
        1
      ],
      "min": [
        -1,
        -0.98480790853500366,
        -0.99999994039535522
      ],
      "type": "VEC3"
    },
    {
      "bufferView": 3,
      "componentType": 5126,
      "count": 471,
      "max": [
        1,
        0.99999654293060303,
        0.57480186223983765,
        1
      ],
      "min": [
        -0.99931484460830688,
        -0.99893724918365479,
        -0.74482506513595581,
        1
      ],
      "type": "VEC4"
    },
    {
      "bufferView": 1,
      "componentType": 5126,
      "count": 471,
      "max": [
        0.69283545017242432,
        0.98147690296173096
      ],
      "min": [
        0.0073762601241469383,
        0.010466795414686203
      ],
      "type": "VEC2"
    },
    {
      "bufferView": 0,
      "componentType": 5125,
      "count": 1404,
      "max": [
        470
      ],
      "min": [
        0
      ],
      "type": "SCALAR"
    },
    {
      "bufferView": 2,
      "byteOffset": 11304,
      "componentType": 5126,
      "count": 223,
      "max": [
        0.6851544976234436,
        0.67474460601806641,
        8.4946737289428711
      ],
      "min": [
        -0.6851467490196228,
        -0.67473876476287842,
        6.275489330291748
      ],
      "type": "VEC3"
    },
    {
      "bufferView": 2,
      "byteOffset": 13980,
      "componentType": 5126,
      "count": 223,
      "max": [
        0.99930870532989502,
        0.98412919044494629,
        0.99999988079071045
      ],
      "min": [
        -0.99930852651596069,
        -0.98412907123565674,
        -1
      ],
      "type": "VEC3"
    },
    {
      "bufferView": 3,
      "byteOffset": 7536,
      "componentType": 5126,
      "count": 223,
      "max": [
        1,
        0.99862492084503174,
        0.27635154128074646,
        1
      ],
      "min": [
        -0.98927050828933716,
        -0.99785220623016357,
        -0.27764302492141724,
        1
      ],
      "type": "VEC4"
    },
    {
      "bufferView": 1,
      "byteOffset": 3768,
      "componentType": 5126,
      "count": 223,
      "max": [
        0.97770023345947266,
        0.97318160533905029
      ],
      "min": [
        0.45969614386558533,
        0.018523182719945908
      ],
      "type": "VEC2"
    },
    {
      "bufferView": 0,
      "byteOffset": 5616,
      "componentType": 5125,
      "count": 540,
      "max": [
        222
      ],
      "min": [
        0
      ],
      "type": "SCALAR"
    }
  ],
  "asset": {
    "extras": {
      "author": "Théo Richard (https://sketchfab.com/theorichard)",
      "license": "CC-BY-NC-4.0 (http://creativecommons.org/licenses/by-nc/4.0/)",
      "source": "https://sketchfab.com/models/9f509a3e36d74c8cba689ed03b8447ef",
      "title": "Marker"
    },
    "generator": "Sketchfab-3.19.4",
    "version": "2.0"
  },
  "bufferViews": [
    {
      "buffer": 0,
      "byteLength": 7776,
      "byteOffset": 0,
      "name": "floatBufferViews",
      "target": 34963
    },
    {
      "buffer": 0,
      "byteLength": 5552,
      "byteOffset": 7776,
      "byteStride": 8,
      "name": "floatBufferViews",
      "target": 34962
    },
    {
      "buffer": 0,
      "byteLength": 16656,
      "byteOffset": 13328,
      "byteStride": 12,
      "name": "floatBufferViews",
      "target": 34962
    },
    {
      "buffer": 0,
      "byteLength": 11104,
      "byteOffset": 29984,
      "byteStride": 16,
      "name": "floatBufferViews",
      "target": 34962
    }
  ],
  "buffers": [
    {
      "byteLength": 41088,
      "uri": "scene.bin"
    }
  ],
  "images": [
    {
      "uri": "textures/Pencil_normal.png"
    },
    {
      "uri": "textures/Pencil_baseColor.png"
    },
    {
      "uri": "textures/Pencil_metallicRoughness.png"
    }
  ],
  "materials": [
    {
      "doubleSided": true,
      "emissiveFactor": [
        0,
        0,
        0
      ],
      "name": "Pencil",
      "normalTexture": {
        "index": 0,
        "scale": 1,
        "texCoord": 0
      },
      "pbrMetallicRoughness": {
        "baseColorFactor": [
          1,
          1,
          1,
          1
        ],
        "baseColorTexture": {
          "index": 1,
          "texCoord": 0
        },
        "metallicFactor": 1,
        "metallicRoughnessTexture": {
          "index": 2,
          "texCoord": 0
        },
        "roughnessFactor": 0
      }
    }
  ],
  "meshes": [
    {
      "name": "Pen_Pencil_0",
      "primitives": [
        {
          "attributes": {
            "NORMAL": 1,
            "POSITION": 0,
            "TANGENT": 2,
            "TEXCOORD_0": 3
          },
          "indices": 4,
          "material": 0,
          "mode": 4
        }
      ]
    },
    {
      "name": "Cap_Pencil_0",
      "primitives": [
        {
          "attributes": {
            "NORMAL": 6,
            "POSITION": 5,
            "TANGENT": 7,
            "TEXCOORD_0": 8
          },
          "indices": 9,
          "material": 0,
          "mode": 4
        }
      ]
    }
  ],
  "nodes": [
    {
      "children": [
        1
      ],
      "name": "RootNode (gltf orientation matrix)",
      "rotation": [
        -0.70710678118654746,
        -0,
        -0,
        0.70710678118654757
      ]
    },
    {
      "children": [
        2
      ],
      "matrix": [
        0.70812404155731201,
        0.70608806610107422,
        0,
        0,
        -0.55325764417648315,
        0.55485296249389648,
        -0.62132453918457031,
        0,
        -0.43870985507965088,
        0.43997481465339661,
        0.7835533618927002,
        0,
        2.2907052040100098,
        -2.2973091602325439,
        1.1301676034927368,
        1
      ],
      "name": "RootNode (model correction matrix)"
    },
    {
      "children": [
        3
      ],
      "matrix": [
        1,
        0,
        0,
        0,
        0,
        0,
        1,
        0,
        0,
        -1,
        0,
        0,
        0,
        0,
        0,
        1
      ],
      "name": "2e84430255284155aca76a63ada53576.fbx"
    },
    {
      "children": [
        4,
        6
      ],
      "name": "RootNode"
    },
    {
      "children": [
        5
      ],
      "matrix": [
        1,
        0,
        0,
        0,
        0,
        2.2204460492503131e-16,
        -1,
        0,
        0,
        1,
        2.2204460492503131e-16,
        0,
        0,
        0,
        0,
        1
      ],
      "name": "Pen"
    },
    {
      "mesh": 0,
      "name": "Pen_Pencil_0"
    },
    {
      "children": [
        7
      ],
      "matrix": [
        1,
        0,
        0,
        0,
        0,
        2.2204460492503131e-16,
        -1,
        0,
        0,
        1,
        2.2204460492503131e-16,
        0,
        3.8743019104003906e-06,
        9.4537696838378906,
        -2.9206275939941406e-06,
        1
      ],
      "name": "Cap"
    },
    {
      "children": [
        8
      ],
      "matrix": [
        1,
        0,
        -0,
        0,
        0,
        1,
        0,
        0,
        0,
        0,
        1,
        0,
        -3.8743019104003906e-06,
        -2.9206275939941406e-06,
        -7.3850812911987305,
        1
      ],
      "name": ""
    },
    {
      "mesh": 1,
      "name": "Cap_Pencil_0"
    }
  ],
  "samplers": [
    {
      "magFilter": 9729,
      "minFilter": 9987,
      "wrapS": 10497,
      "wrapT": 10497
    }
  ],
  "scene": 0,
  "scenes": [
    {
      "name": "OSG_Scene",
      "nodes": [
        0
      ]
    }
  ],
  "textures": [
    {
      "sampler": 0,
      "source": 0
    },
    {
      "sampler": 0,
      "source": 1
    },
    {
      "sampler": 0,
      "source": 2
    }
  ]
}

